<?xml version="1.0" encoding="utf-8"?>
<!-- Generator: Adobe Illustrator 19.0.0, SVG Export Plug-In . SVG Version: 6.00 Build 0)  -->
<svg version="1.1" id="Layer_1" xmlns="http://www.w3.org/2000/svg" xmlns:xlink="http://www.w3.org/1999/xlink" x="0px" y="0px"
	 viewBox="0 0 195.8 84.5" style="enable-background:new 0 0 195.8 84.5;" xml:space="preserve">
<style type="text/css">
	.st0{fill:#00A651;}
</style>
<g id="XMLID_1_">
	<path id="XMLID_9_" class="st0" d="M132.1,0c4.1,0,7.9,0.8,11.3,2.4c3.4,1.6,6.3,3.8,8.7,6.5c2.4,2.7,4.3,5.7,5.6,9.2
		c1.3,3.5,2,7,2,10.6c0,3.8-0.7,7.4-2.1,10.8c-1.4,3.5-3.3,6.5-5.8,9.2c-2.5,2.7-5.4,4.8-8.8,6.3c-3.4,1.6-7.1,2.3-11.1,2.3
		c-4.1,0-7.8-0.8-11.2-2.5c-3.4-1.7-6.3-3.9-8.6-6.6c-2.4-2.7-4.2-5.8-5.6-9.2c-1.3-3.5-2-7-2-10.5c0-3.8,0.7-7.4,2.1-10.8
		c1.4-3.4,3.3-6.5,5.7-9.1c2.4-2.6,5.4-4.7,8.8-6.3C124.4,0.8,128.1,0,132.1,0z M148.5,28.7c0-2.4-0.4-4.8-1.1-7.1
		c-0.7-2.3-1.8-4.3-3.2-6.1c-1.4-1.8-3.1-3.2-5.2-4.2c-2-1.1-4.4-1.6-7-1.6c-2.7,0-5,0.5-7,1.6c-2,1.1-3.8,2.5-5.2,4.3
		c-1.4,1.8-2.5,3.8-3.2,6.1c-0.7,2.3-1.1,4.6-1.1,6.9c0,2.4,0.4,4.8,1.2,7.1c0.8,2.3,1.9,4.3,3.3,6.1c1.4,1.8,3.1,3.1,5.2,4.2
		c2,1,4.3,1.6,6.9,1.6c2.7,0,5-0.5,7.1-1.6c2.1-1.1,3.8-2.5,5.2-4.3c1.4-1.8,2.4-3.8,3.1-6.1C148.1,33.3,148.5,31,148.5,28.7z"/>
	<path id="XMLID_3_" class="st0" d="M74.2,62.1c0,3.4-0.7,6.3-2,8.8c-1.3,2.5-3.2,4.7-5.5,6.4c-2.4,1.7-5.1,3-8.2,3.9
		c-3.1,0.9-6.4,1.3-9.9,1.3H35.3c-60.2,0-25.2,3.8-25.2-25.2V19c0-8.8,7.1-15.9,15.9-15.9h26.7c2.8,0,5.3,0.6,7.5,1.8
		c2.2,1.2,4.1,2.7,5.7,4.6c1.6,1.9,2.8,4.1,3.6,6.5c0.9,2.4,1.3,4.9,1.3,7.3c0,3.9-1,7.5-2.9,10.9c-1.9,3.4-4.8,5.9-8.5,7.6
		c4.6,1.3,8.2,3.8,10.8,7.2C72.8,52.5,74.2,56.9,74.2,62.1z M25.6,16.3v20h20.6c2.6,0,4.8-0.9,6.7-2.7c1.8-1.8,2.7-4.3,2.7-7.4
		c0-3.1-0.8-5.5-2.5-7.3c-1.7-1.8-3.8-2.7-6.2-2.7H25.6z M58.6,59.2c0-1.4-0.2-2.8-0.7-4.1c-0.5-1.3-1.1-2.4-2-3.4
		c-0.8-1-1.8-1.7-2.9-2.3s-2.4-0.8-3.7-0.8H25.6v20.9h23c1.4,0,2.7-0.3,4-0.8c1.2-0.5,2.3-1.2,3.2-2.2c0.9-0.9,1.6-2,2.1-3.3
		C58.3,62,58.6,60.6,58.6,59.2z"/>
	<path id="XMLID_7_" class="st0" d="M76.4,82.7V18.6c0-8.5,6.9-15.5,15.5-15.5h0v59.5c0,3.6,2.9,6.5,6.5,6.5h20.5
		c15.2-15.2,13.6,6.1,13.6,13.6v0H76.4z"/>
</g>
<g id="XMLID_2_">
	<path id="XMLID_12_" class="st0" d="M161.9,52c-0.3-0.3-0.8-0.7-1.6-1.2c-0.8-0.5-1.7-1-2.7-1.4c-0.9-0.4-1.9-0.7-2.9-1
		c-1.2-0.3-3.1-0.6-4.3-0.6c-2.4,0-4.1,0.4-5.3,1.3c-1.1,0.9-1.7,2.1-1.7,3.6c0,0.9,0.2,1.6,0.6,2.2c0.4,0.6,1,1.1,1.9,1.6
		c0.8,0.4,1.8,0.9,3.1,1.2c1.2,0.4,2.7,0.8,4.3,1.2c2.1,0.6,4,1.2,5.8,1.8c1.7,0.7,3.2,1.5,4.4,2.4c1.2,1,2.1,2.1,2.8,3.5
		c0.6,1.4,1,3,1,5c0,2.3-0.4,4.3-1.3,5.9c-0.9,1.6-2.1,3-3.5,4c-1.5,1-3.2,1.8-5.1,2.2c-1.9,0.5-4,0.7-6.1,0.7
		c-3.3,0-6.5-0.5-9.6-1.5c0,0-0.1,0-0.1,0c-4.7-1.5-7-6.9-4.7-11.4v0c0.4,0.4,1,0.8,2,1.4c1,0.6,2.1,1.2,3.4,1.8
		c1.3,0.6,2.7,1.1,4.3,1.5c1.6,0.4,3.2,0.6,4.9,0.6c4.6,0,7-1.5,7-4.5c0-0.9-0.3-1.7-0.8-2.4c-0.5-0.6-1.3-1.2-2.3-1.7
		c-1-0.5-2.2-0.9-3.5-1.3c-1.4-0.4-2.9-0.9-4.6-1.3c-2.1-0.6-3.9-1.2-5.4-1.9c-1.5-0.7-2.8-1.5-3.8-2.4c-1-0.9-1.8-2-2.3-3.2
		c-0.5-1.2-0.8-2.6-0.8-4.3c0-2.2,0.4-4.1,1.2-5.9c0.8-1.7,1.9-3.1,3.4-4.3c1.4-1.1,3.1-2,5-2.6c1.9-0.6,4-0.9,6.2-0.9
		c3,0,5.9,0.5,8.4,1.4c2.6,1,4.8,2.1,6.7,3.4L161.9,52z"/>
	<path id="XMLID_14_" class="st0" d="M190.5,24.9c-0.3-0.3-0.8-0.7-1.6-1.2c-0.8-0.5-1.7-1-2.7-1.4c-0.9-0.4-1.9-0.7-2.9-1
		c-1.2-0.3-3.1-0.6-4.3-0.6c-2.4,0-4.1,0.4-5.3,1.3c-1.1,0.9-1.7,2.1-1.7,3.6c0,0.9,0.2,1.6,0.6,2.2c0.4,0.6,1,1.1,1.9,1.6
		c0.8,0.4,1.8,0.9,3.1,1.2c1.2,0.4,2.7,0.8,4.3,1.2c2.1,0.6,4,1.2,5.8,1.8c1.7,0.7,3.2,1.5,4.4,2.4c1.2,1,2.1,2.1,2.8,3.5
		c0.6,1.4,1,3,1,5c0,2.3-0.4,4.3-1.3,5.9c-0.9,1.6-2.1,3-3.5,4c-1.5,1-3.2,1.8-5.1,2.2c-1.9,0.5-4,0.7-6.1,0.7
		c-3.3,0-6.5-0.5-9.6-1.5c-3.2-1-6-2.4-8.5-4.1l3.5-6.9c0.4,0.4,1.3,0.5,2.2,1.1c1,0.6,2.1,1.2,3.4,1.8c1.3,0.6,2.7,1.1,4.3,1.5
		c1.6,0.4,3.2,0.6,4.9,0.6c4.6,0,7-1.5,7-4.5c0-0.9-0.3-1.7-0.8-2.4c-0.5-0.6-1.3-1.2-2.3-1.7s-2.2-0.9-3.5-1.3
		c-1.4-0.4-2.9-0.9-4.6-1.3c-2.1-0.6-3.9-1.2-5.4-1.9c-1.5-0.7-2.8-1.5-3.8-2.4c-1-0.9-1.8-2-2.3-3.2c-0.5-1.2-0.8-2.6-0.8-4.3
		c0-2.2,0.4-4.1,1.2-5.9c0.8-1.7,1.9-3.1,3.4-4.3c1.4-1.1,3.1-2,5-2.6c1.9-0.6,4-0.9,6.2-0.9c3,0,5.9,0.5,8.4,1.4c0,0,0.1,0,0.1,0
		c3.7,1.4,5.3,5.8,3.4,9.3L190.5,24.9z"/>
</g>
</svg>
